<?xml version="1.0" encoding="UTF-8" standalone="no"?>
<!-- Created with Inkscape (http://www.inkscape.org/) -->

<svg
   width="32.77375mm"
   height="37.271255mm"
   viewBox="0 0 32.77375 37.271255"
   version="1.1"
   id="svg1"
   xml:space="preserve"
   xmlns:inkscape="http://www.inkscape.org/namespaces/inkscape"
   xmlns:sodipodi="http://sodipodi.sourceforge.net/DTD/sodipodi-0.dtd"
   xmlns="http://www.w3.org/2000/svg"
   xmlns:svg="http://www.w3.org/2000/svg"><sodipodi:namedview
     id="namedview1"
     pagecolor="#ffffff"
     bordercolor="#000000"
     borderopacity="0.25"
     inkscape:showpageshadow="2"
     inkscape:pageopacity="0.0"
     inkscape:pagecheckerboard="0"
     inkscape:deskcolor="#d1d1d1"
     inkscape:document-units="mm" /><defs
     id="defs1" /><g
     inkscape:label="Layer 1"
     inkscape:groupmode="layer"
     id="layer1"
     transform="translate(-70.043573,-48.148902)"><path
       style="fill:#ffffff;fill-opacity:1"
       d="m 71.781777,85.057752 c -0.398353,-0.22537 -0.926208,-0.7937 -1.17301,-1.26295 -0.603514,-1.14748 -0.602875,-3.99968 0.0012,-5.14819 0.775208,-1.47399 2.508836,-2.01653 4.370196,-1.36766 1.487316,0.51848 0.978388,1.12919 -0.636582,0.76389 -2.189637,-0.49529 -3.028103,0.40807 -3.028103,3.26245 0,2.22502 0.603525,3.09153 2.153264,3.09153 0.581088,0 1.288588,-0.1242 1.572222,-0.27599 0.402779,-0.21557 0.551498,-0.1827 0.679196,0.15007 0.250451,0.65267 -0.225421,0.93845 -1.787305,1.07337 -0.992045,0.0857 -1.647427,-0.002 -2.15103,-0.28652 z m 7.338861,0.14728 c -1.505769,-0.6163 -2.271354,-2.87124 -1.77624,-5.23171 0.400684,-1.91028 1.175108,-2.73281 2.737286,-2.90734 0.925875,-0.10343 1.30665,-0.01 1.91529,0.47029 0.87454,0.69004 1.48929,1.98941 1.48929,3.14788 v 0.80225 H 80.84043 c -2.490813,0 -2.645833,0.0318 -2.645833,0.54231 0,0.91063 0.765589,2.08638 1.474383,2.26427 0.671355,0.1685 1.984104,0.0341 2.790954,-0.28573 0.2671,-0.10588 0.49064,-0.009 0.59262,0.2567 0.32203,0.83919 -2.51931,1.51925 -3.931916,0.94108 z m 3.305596,-5.44592 c -0.27079,-1.20065 -0.64779,-1.63856 -1.588568,-1.84519 -0.960237,-0.2109 -1.732125,0.19713 -2.243456,1.18594 -0.763052,1.47558 -0.629008,1.59279 1.821481,1.59279 h 2.221093 z m 3.1767,1.85958 v -3.57187 h -0.66146 c -0.41158,0 -0.66146,-0.14993 -0.66146,-0.39688 0,-0.24694 0.24988,-0.39687 0.66146,-0.39687 0.59375,0 0.66146,-0.10682 0.66146,-1.04358 0,-1.28653 0.8337,-2.32805 2.05052,-2.56165 0.75215,-0.1444 0.85989,-0.0946 0.85989,0.39716 0,0.37891 -0.16638,0.56224 -0.51027,0.56224 -0.77781,0 -1.34181,0.73081 -1.34181,1.73869 0,0.83154 0.0661,0.90714 0.79375,0.90714 0.52917,0 0.79375,0.13229 0.79375,0.39687 0,0.26459 -0.26458,0.39688 -0.79375,0.39688 h -0.79375 v 3.57187 c 0,3.39549 -0.0261,3.57188 -0.52917,3.57188 -0.50303,0 -0.52916,-0.17639 -0.52916,-3.57188 z m 3.70416,-0.37747 c 0,-3.8293 0.0214,-3.98815 0.53624,-3.98815 0.51765,0 0.5337,0.13516 0.46302,3.89928 -0.0651,3.46923 -0.12428,3.90909 -0.53624,3.98815 -0.42442,0.0815 -0.46302,-0.24358 -0.46302,-3.89928 z m 3.175,0.41851 c 0,-1.9633 -0.0723,-3.75796 -0.1606,-3.98815 -0.10617,-0.27668 -0.0137,-0.41851 0.27289,-0.41851 0.23842,0 0.50161,0.17753 0.58488,0.39452 0.12784,0.33315 0.25558,0.31257 0.82113,-0.13229 0.99262,-0.7808 2.35979,-0.69228 3.1829,0.20607 l 0.67149,0.73289 0.73289,-0.73289 c 1.07781,-1.07781 2.924986,-0.93357 3.874026,0.30252 0.49234,0.64126 0.46515,7.16668 -0.0299,7.16668 -0.28982,0 -0.38918,-0.67931 -0.46302,-3.16558 -0.10525,-3.54412 -0.30755,-3.99331 -1.81775,-4.03624 -0.645736,-0.0184 -1.041296,0.16489 -1.495346,0.69276 -0.56544,0.65736 -0.61737,0.96129 -0.61737,3.6134 0,2.39753 -0.0683,2.89566 -0.39687,2.89566 -0.32641,0 -0.39688,-0.47132 -0.39688,-2.65433 0,-1.71932 -0.13505,-2.97755 -0.38337,-3.57188 -0.34523,-0.82624 -0.48681,-0.91754 -1.42281,-0.91754 -1.5502,0 -1.74556,0.40544 -1.89798,3.93898 -0.11425,2.64855 -0.19545,3.07894 -0.59532,3.15523 -0.42245,0.0806 -0.46302,-0.22438 -0.46302,-3.4813 z m -3.26319,-5.64138 c -0.32779,-0.32779 -0.17917,-1.08885 0.24436,-1.25137 0.59747,-0.22928 0.90217,0.0348 0.90217,0.78191 0,0.44989 -0.14718,0.64585 -0.48507,0.64585 -0.26679,0 -0.56445,-0.0794 -0.66146,-0.17639 z m 0.6835,-8.27345 c -0.98778,-1.0932 -1.65364,-2.06787 -1.65364,-2.42059 0,-0.40041 0.8942,-1.4675 2.77812,-3.31525 1.52797,-1.49863 2.77813,-2.92632 2.77813,-3.17264 0,-0.24631 -1.25016,-1.7165 -2.77813,-3.26707 -1.8924,-1.9204 -2.77812,-3.0117 -2.77812,-3.42294 0,-0.79409 3.05297,-3.99751 3.80977,-3.99751 0.69752,0 10.742306,9.96841 10.742306,10.66063 0,0.5985 -10.214986,10.7716 -10.812396,10.76806 -0.23781,-10e-4 -1.17653,-0.82612 -2.08604,-1.83269 z m -8.2087,-1.94128 c -1.194413,-1.20244 -1.911608,-2.13995 -1.911608,-2.49884 0,-0.35417 0.659381,-1.23378 1.719788,-2.29419 0.94589,-0.94588 1.7198,-1.9382 1.7198,-2.20515 0,-0.26695 -0.77391,-1.25239 -1.7198,-2.18987 -2.272941,-2.25274 -2.266176,-2.56069 0.10657,-4.85138 1.0045,-0.96976 2.04217,-1.7632 2.30595,-1.7632 0.59441,0 8.83228,8.189 8.83228,8.77989 0,0.48763 -8.34517,8.94719 -8.82621,8.94719 -0.17334,0 -1.17539,-0.866 -2.22677,-1.92445 z m -5.698565,-1.99263 c -0.391027,-0.40815 -0.710959,-0.92165 -0.710959,-1.14113 0,-0.49323 1.350419,-1.82096 1.852083,-1.82096 0.501665,0 1.852084,1.32773 1.852084,1.82096 0,0.54193 -1.319112,1.88321 -1.852084,1.88321 -0.23659,0 -0.750096,-0.33394 -1.141124,-0.74208 z m -3.530922,-2.06277 c -0.482263,-0.73602 -0.32781,-1.26994 0.522541,-1.80632 0.496977,-0.31349 1.141545,-0.0274 1.609427,0.71436 0.210283,0.33336 0.127354,0.58892 -0.359167,1.10679 -0.800775,0.85239 -1.206805,0.84899 -1.772801,-0.0148 z m 5.757788,-1.56998 c -0.451637,-0.51439 -0.821158,-1.12161 -0.821158,-1.34938 0,-0.58183 1.696182,-2.21329 2.301095,-2.21329 0.515625,0 2.461402,1.7965 2.461402,2.27256 0,0.48938 -1.999706,2.22536 -2.563432,2.22536 -0.306211,0 -0.926269,-0.42087 -1.377907,-0.93525 z m -3.070117,0.1415 c -0.46213,-0.51065 -0.46213,-0.54769 0,-1.05834 0.263389,-0.29104 0.620577,-0.52916 0.79375,-0.52916 0.173174,0 0.530361,0.23812 0.79375,0.52916 0.46213,0.51065 0.46213,0.54769 0,1.05834 -0.263389,0.29104 -0.620576,0.52916 -0.79375,0.52916 -0.173173,0 -0.530361,-0.23812 -0.79375,-0.52916 z m -4.362828,-0.12893 c -0.698729,-0.84191 0.481917,-1.881 1.256805,-1.10611 0.390037,0.39003 0.385,0.46881 -0.06152,0.96222 -0.580302,0.64122 -0.764166,0.66336 -1.195282,0.14389 z m -0.700187,-1.85368 c -0.09164,-0.23882 -0.03975,-0.56108 0.115307,-0.71614 0.403122,-0.40313 1.166921,-0.0347 1.06162,0.5121 -0.11729,0.60903 -0.965112,0.75602 -1.176927,0.20404 z"
       id="path1" /></g></svg>
